<svg width="381" height="137" viewBox="0 0 381 137" fill="none" xmlns="http://www.w3.org/2000/svg">
<path d="M6.19518 39.2112L208.944 134.102C212.034 135.549 217.035 135.527 220.113 134.054L284.837 103.075C287.915 101.601 287.905 99.2343 284.814 97.7877L82.0657 2.89647C78.975 1.44992 73.9741 1.4716 70.896 2.94491L6.17225 33.9243C3.09414 35.3976 3.10441 37.7647 6.19518 39.2112Z" fill="#2C4251" fill-opacity="0.69"/>
<path d="M341.94 31.917H96.2706C75.1133 31.917 57.9619 49.0704 57.9619 70.2302C57.9619 91.39 75.1133 108.543 96.2706 108.543H341.94C363.098 108.543 380.249 91.39 380.249 70.2302C380.249 49.0704 363.098 31.917 341.94 31.917Z" fill="#2C4251"/>
<path d="M204.82 96.1838C205.68 96.1838 206.422 95.8871 207.045 95.2939C207.638 94.671 207.934 93.9295 207.934 93.0693V68.1533C207.934 66.6702 207.237 65.6914 205.843 65.2168C204.45 64.7422 203.293 65.0833 202.373 66.2401L191.474 80.0329L180.575 66.2401C179.655 65.0537 178.499 64.7125 177.105 65.2168C175.711 65.6914 175.014 66.6702 175.014 68.1533V93.0693C175.014 93.9295 175.31 94.671 175.903 95.2939C176.526 95.8871 177.268 96.1838 178.128 96.1838C178.988 96.1838 179.729 95.8871 180.352 95.2939C180.945 94.671 181.242 93.9295 181.242 93.0693V77.1409L189.027 86.9738C189.62 87.745 190.436 88.1306 191.474 88.1306C192.512 88.1306 193.328 87.745 193.921 86.9738L201.706 77.1409V93.0693C201.706 93.9295 202.003 94.671 202.596 95.2939C203.219 95.8871 203.96 96.1838 204.82 96.1838ZM227.949 71.2678C230.529 71.2678 232.724 72.1873 234.533 74.0264C236.372 75.8357 237.291 78.0307 237.291 80.6113C237.291 83.1919 236.372 85.3868 234.533 87.1962C232.724 89.0353 230.529 89.9548 227.949 89.9548C225.368 89.9548 223.174 89.0353 221.364 87.1962C219.526 85.3868 218.606 83.1919 218.606 80.6113C218.606 78.0307 219.526 75.8357 221.364 74.0264C223.174 72.1873 225.368 71.2678 227.949 71.2678ZM227.949 96.1838C232.249 96.1838 235.912 94.6562 238.937 91.601C241.992 88.5755 243.519 84.9123 243.519 80.6113C243.519 76.3103 241.992 72.6471 238.937 69.6216C235.912 66.5664 232.249 65.0388 227.949 65.0388C223.648 65.0388 219.985 66.5664 216.96 69.6216C213.905 72.6471 212.378 76.3103 212.378 80.6113C212.378 84.9123 213.905 88.5755 216.96 91.601C219.985 94.6562 223.648 96.1838 227.949 96.1838ZM259.613 89.9548C257.685 89.9548 255.95 89.7175 254.408 89.2429C253.103 88.8573 252.094 88.3679 251.383 87.7746C250.73 87.2111 249.989 86.9589 249.158 87.0182C248.298 87.1072 247.587 87.478 247.023 88.1306C246.46 88.7831 246.208 89.5395 246.267 90.3997C246.356 91.2302 246.727 91.9273 247.379 92.4909C250.256 94.9528 254.334 96.1838 259.613 96.1838C264.151 96.1838 267.606 95.1604 269.978 93.1138C271.966 91.423 272.959 89.3319 272.959 86.8403C272.959 83.4292 271.239 80.9376 267.799 79.3655C266.583 78.8019 265.144 78.357 263.483 78.0307C262.86 77.9121 262.208 77.8082 261.526 77.7193L260.681 77.5858L260.28 77.5413L259.924 77.4968C257.136 77.2298 255.238 76.7108 254.23 75.9396C253.874 75.6726 253.622 75.376 253.474 75.0497C253.444 74.931 253.414 74.7976 253.385 74.6493V74.5158V74.3823C253.385 73.4331 253.948 72.6767 255.075 72.1132C256.202 71.5496 257.715 71.2678 259.613 71.2678C261.303 71.2678 262.831 71.4903 264.195 71.9352C265.352 72.2911 266.256 72.7509 266.909 73.3145C267.532 73.9077 268.273 74.1747 269.133 74.1153C269.993 74.056 270.705 73.7001 271.269 73.0475C271.862 72.4246 272.129 71.6831 272.069 70.8229C272.01 69.9627 271.654 69.2508 271.002 68.6872C268.273 66.255 264.477 65.0388 259.613 65.0388C255.579 65.0388 252.436 66.0177 250.181 67.9753C248.165 69.6957 247.157 71.8314 247.157 74.3823C247.157 79.7511 251.205 82.8656 259.301 83.7258C262.475 84.0521 264.64 84.6008 265.797 85.372C266.212 85.639 266.479 85.9208 266.597 86.2174C266.657 86.336 266.701 86.4547 266.731 86.5733V86.7068V86.8403C266.731 87.7598 266.063 88.5013 264.729 89.0649C263.424 89.6582 261.719 89.9548 259.613 89.9548ZM285.421 71.2678V93.0693C285.421 93.9295 285.732 94.6562 286.355 95.2494C286.948 95.8723 287.675 96.1838 288.535 96.1838C289.395 96.1838 290.136 95.8723 290.759 95.2494C291.352 94.6562 291.649 93.9295 291.649 93.0693V71.2678H299.212C300.072 71.2678 300.813 70.9712 301.436 70.378C302.029 69.7551 302.326 69.0135 302.326 68.1533C302.326 67.2931 302.029 66.5516 301.436 65.9287C300.813 65.3354 300.072 65.0388 299.212 65.0388H277.858C276.998 65.0388 276.256 65.3354 275.633 65.9287C275.04 66.5516 274.743 67.2931 274.743 68.1533C274.743 69.0135 275.04 69.7551 275.633 70.378C276.256 70.9712 276.998 71.2678 277.858 71.2678H285.421ZM305.87 93.0693C305.87 93.9295 306.166 94.6562 306.76 95.2494C307.382 95.8723 308.124 96.1838 308.984 96.1838H326.779C327.639 96.1838 328.381 95.8723 329.003 95.2494C329.597 94.6562 329.893 93.9295 329.893 93.0693C329.893 92.2091 329.597 91.4675 329.003 90.8446C328.381 90.2514 327.639 89.9548 326.779 89.9548H312.098V68.1533C312.098 67.2931 311.802 66.5664 311.208 65.9732C310.586 65.3503 309.844 65.0388 308.984 65.0388C308.124 65.0388 307.382 65.3503 306.76 65.9732C306.166 66.5664 305.87 67.2931 305.87 68.1533V93.0693ZM353.694 65.6172C352.982 65.113 352.196 64.935 351.336 65.0833C350.506 65.2316 349.838 65.6469 349.334 66.3291L340.303 78.8316L331.228 66.3291C330.724 65.6469 330.056 65.2316 329.226 65.0833C328.366 64.935 327.595 65.113 326.913 65.6172C326.201 66.1215 325.785 66.8037 325.667 67.6639C325.519 68.5241 325.697 69.2953 326.201 69.9775L337.189 85.194V93.0693C337.189 93.9295 337.486 94.6562 338.079 95.2494C338.702 95.8723 339.443 96.1838 340.303 96.1838C341.163 96.1838 341.89 95.8723 342.483 95.2494C343.106 94.6562 343.417 93.9295 343.417 93.0693V85.194L354.361 69.9775C354.865 69.2953 355.058 68.5241 354.94 67.6639C354.791 66.8037 354.376 66.1215 353.694 65.6172Z" fill="#8DD1FF"/>
<path d="M96.0234 50.95C96.0234 48.7657 97.794 46.9951 99.9779 46.9951C102.162 46.9951 103.932 48.7657 103.932 50.95V91.7351C103.932 93.9194 102.162 95.69 99.9779 95.69C97.794 95.69 96.0234 93.9194 96.0234 91.7351V50.95Z" fill="#8DD1FF"/>
<path d="M133.838 67.8812C133.838 65.6287 135.664 63.8027 137.916 63.8027C140.168 63.8027 141.994 65.6287 141.994 67.8812V91.6107C141.994 93.8633 140.168 95.6892 137.916 95.6892C135.664 95.6892 133.838 93.8633 133.838 91.6107V67.8812Z" fill="#8DD1FF"/>
<path d="M114.807 60.4662C114.807 58.2136 116.633 56.3877 118.885 56.3877C121.137 56.3877 122.963 58.2136 122.963 60.4662V91.6111C122.963 93.8637 121.137 95.6896 118.885 95.6896C116.633 95.6896 114.807 93.8637 114.807 91.6111V60.4662Z" fill="#8DD1FF"/>
</svg>
