<svg width="1278" height="300" viewBox="0 0 1278 300" fill="none" xmlns="http://www.w3.org/2000/svg">
<g clip-path="url(#clip0_20_620)">
<path fill-rule="evenodd" clip-rule="evenodd" d="M0 32.7522L17.7778 76.8821C35.5556 121.012 71.1111 209.272 106.667 246.74C142.222 284.209 177.778 271.719 213.333 234.251C248.889 196.782 284.444 133.501 320 133.501C355.556 133.501 391.111 196.782 426.667 209.272C462.222 221.761 497.778 183.46 533.333 158.481C568.889 133.501 604.444 121.012 640 139.33C675.556 158.481 711.111 209.272 746.667 190.121C782.222 170.97 817.778 82.7105 853.333 38.5807C888.889 -5.54914 924.444 -5.54914 960 7.77308C995.556 20.2627 1031.11 45.2418 1066.67 76.8821C1102.22 108.522 1137.78 145.991 1173.33 152.652C1208.89 158.481 1244.44 133.501 1262.22 121.012L1280 108.522V335H1262.22C1244.44 335 1208.89 335 1173.33 335C1137.78 335 1102.22 335 1066.67 335C1031.11 335 995.556 335 960 335C924.444 335 888.889 335 853.333 335C817.778 335 782.222 335 746.667 335C711.111 335 675.556 335 640 335C604.444 335 568.889 335 533.333 335C497.778 335 462.222 335 426.667 335C391.111 335 355.556 335 320 335C284.444 335 248.889 335 213.333 335C177.778 335 142.222 335 106.667 335C71.1111 335 35.5556 335 17.7778 335H0V32.7522Z" fill="#2C4251"/>
</g>
<defs>
<clipPath id="clip0_20_620">
<rect width="1280" height="300" fill="white" transform="translate(-2)"/>
</clipPath>
</defs>
</svg>
